<svg xmlns="http://www.w3.org/2000/svg" viewBox="0 0 1413 1112" font-family="system-ui,'Segoe UI','Helvetica Neue',Arial,sans-serif"><defs><marker id="ah" viewBox="0 0 10 10" refX="8" refY="5" markerWidth="5.5" markerHeight="5.5" orient="auto-start-reverse"><path d="M 0 0 L 10 5 L 0 10 z" fill="#232c3d"/></marker></defs><rect width="1413" height="1112" fill="#fdfdfc"/><rect x="506.5" y="25" width="400" height="100" rx="16" fill="#fdefc3" stroke="#ecc94b" stroke-width="2.5"/><circle cx="566.5" cy="75.0" r="34" fill="#f6cf4a" fill-opacity="0.55"/><circle cx="566.5" cy="67.0" r="9" stroke="#2a3345" stroke-width="3.4" fill="none" stroke-linecap="round" stroke-linejoin="round"/><path d="M 551.5 92.0 a 15 12 0 0 1 30 0" stroke="#2a3345" stroke-width="3.4" fill="none" stroke-linecap="round" stroke-linejoin="round"/><text x="622.5" y="71.0" font-family="system-ui,'Segoe UI','Helvetica Neue',Arial,sans-serif" font-size="27" font-weight="700" fill="#1e2a3a">User</text><text x="622.5" y="106.0" font-family="system-ui,'Segoe UI','Helvetica Neue',Arial,sans-serif" font-size="23" fill="#3d4a5c">(Telegram)</text><path d="M 706.5 125 L 706.5 165" stroke="#232c3d" stroke-width="4" fill="none" marker-end="url(#ah)"/><rect x="506.5" y="172" width="400" height="122" rx="16" fill="#dbe7fc" stroke="#82aaf2" stroke-width="2.5"/><circle cx="566.5" cy="233.0" r="34" fill="#79a2f2" fill-opacity="0.55"/><rect x="551.5" y="225.0" width="30" height="21" rx="6" stroke="#1d3461" stroke-width="3.4" fill="none" stroke-linecap="round" stroke-linejoin="round"/><line x1="566.5" y1="219.0" x2="566.5" y2="225.0" stroke="#1d3461" stroke-width="3.4" fill="none" stroke-linecap="round" stroke-linejoin="round"/><circle cx="566.5" cy="216.0" r="2.6" fill="#1d3461" stroke="none"/><circle cx="560.0" cy="234.0" r="2.4" fill="#1d3461" stroke="none"/><circle cx="573.0" cy="234.0" r="2.4" fill="#1d3461" stroke="none"/><path d="M 561.5 241.0 h 10" stroke="#1d3461" stroke-width="3.4" fill="none" stroke-linecap="round" stroke-linejoin="round"/><text x="622.5" y="214.5" font-family="system-ui,'Segoe UI','Helvetica Neue',Arial,sans-serif" font-size="27" font-weight="700" fill="#1e2a3a">Orchestrator (agent)</text><text x="622.5" y="249.5" font-family="system-ui,'Segoe UI','Helvetica Neue',Arial,sans-serif" font-size="23" fill="#3d4a5c">(picks which sub-</text><text x="622.5" y="278.5" font-family="system-ui,'Segoe UI','Helvetica Neue',Arial,sans-serif" font-size="23" fill="#3d4a5c">workflow to call)</text><path d="M 706.5 294 L 706.5 330 L 206.5 330 L 206.5 368" stroke="#232c3d" stroke-width="4" fill="none" stroke-linejoin="round" marker-end="url(#ah)"/><path d="M 706.5 294 L 706.5 330 L 456.5 330 L 456.5 368" stroke="#232c3d" stroke-width="4" fill="none" stroke-linejoin="round" marker-end="url(#ah)"/><path d="M 706.5 294 L 706.5 368" stroke="#232c3d" stroke-width="4" fill="none" stroke-linejoin="round" marker-end="url(#ah)"/><path d="M 706.5 294 L 706.5 330 L 956.5 330 L 956.5 368" stroke="#232c3d" stroke-width="4" fill="none" stroke-linejoin="round" marker-end="url(#ah)"/><path d="M 706.5 294 L 706.5 330 L 1206.5 330 L 1206.5 368" stroke="#232c3d" stroke-width="4" fill="none" stroke-linejoin="round" marker-end="url(#ah)"/><rect x="93.5" y="372" width="226" height="92" rx="16" fill="#daf2e0" stroke="#66c88b" stroke-width="2.5"/><circle cx="148.5" cy="418.0" r="29" fill="#6fd096" fill-opacity="0.55"/><path d="M 137.5 403.0 h 22 v 27 l -5 -4 l -6 4 l -6 -4 l -5 4 z" stroke="#1f5c38" stroke-width="3.4" fill="none" stroke-linecap="round" stroke-linejoin="round"/><text x="148.5" y="420.0" font-family="system-ui,'Segoe UI','Helvetica Neue',Arial,sans-serif" font-size="15" font-weight="700" fill="#1f5c38" text-anchor="middle">$</text><text x="199.5" y="428.0" font-family="system-ui,'Segoe UI','Helvetica Neue',Arial,sans-serif" font-size="26" font-weight="700" fill="#1e2a3a">Expense</text><rect x="343.5" y="372" width="226" height="92" rx="16" fill="#daf2e0" stroke="#66c88b" stroke-width="2.5"/><circle cx="398.5" cy="418.0" r="29" fill="#6fd096" fill-opacity="0.55"/><rect x="382.5" y="407.0" width="32" height="23" rx="4" stroke="#1f5c38" stroke-width="3.4" fill="none" stroke-linecap="round" stroke-linejoin="round"/><line x1="382.5" y1="415.0" x2="414.5" y2="415.0" stroke="#1f5c38" stroke-width="3.4" fill="none" stroke-linecap="round" stroke-linejoin="round"/><text x="449.5" y="428.0" font-family="system-ui,'Segoe UI','Helvetica Neue',Arial,sans-serif" font-size="26" font-weight="700" fill="#1e2a3a">Card</text><rect x="593.5" y="372" width="226" height="92" rx="16" fill="#daf2e0" stroke="#66c88b" stroke-width="2.5"/><circle cx="648.5" cy="418.0" r="29" fill="#6fd096" fill-opacity="0.55"/><path d="M 635.5 431.0 h 26" stroke="#1f5c38" stroke-width="3.4" fill="none" stroke-linecap="round" stroke-linejoin="round"/><path d="M 640.5 431.0 v -8 M 648.5 431.0 v -14 M 656.5 431.0 v -20" stroke="#1f5c38" stroke-width="5" stroke-linecap="round" fill="none"/><text x="699.5" y="428.0" font-family="system-ui,'Segoe UI','Helvetica Neue',Arial,sans-serif" font-size="26" font-weight="700" fill="#1e2a3a">Report</text><rect x="843.5" y="372" width="226" height="92" rx="16" fill="#daf2e0" stroke="#66c88b" stroke-width="2.5"/><circle cx="898.5" cy="418.0" r="29" fill="#6fd096" fill-opacity="0.55"/><path d="M 886.5 432.0 l 2.5-9 L 905.5 406.5 l 6.5 6.5 L 895.5 429.5 z" stroke="#1f5c38" stroke-width="3.4" fill="none" stroke-linecap="round" stroke-linejoin="round"/><path d="M 902.0 410.0 l 6.5 6.5" stroke="#1f5c38" stroke-width="3.4" fill="none" stroke-linecap="round" stroke-linejoin="round"/><text x="949.5" y="428.0" font-family="system-ui,'Segoe UI','Helvetica Neue',Arial,sans-serif" font-size="26" font-weight="700" fill="#1e2a3a">Edit</text><rect x="1093.5" y="372" width="226" height="92" rx="16" fill="#daf2e0" stroke="#66c88b" stroke-width="2.5"/><circle cx="1148.5" cy="418.0" r="29" fill="#6fd096" fill-opacity="0.55"/><path d="M 1135.5 409.0 h 26" stroke="#1f5c38" stroke-width="3.4" fill="none" stroke-linecap="round" stroke-linejoin="round"/><path d="M 1143.5 409.0 v -4 h 10 v 4" stroke="#1f5c38" stroke-width="3.4" fill="none" stroke-linecap="round" stroke-linejoin="round"/><path d="M 1138.5 409.0 l 2 24 h 16 l 2 -24" stroke="#1f5c38" stroke-width="3.4" fill="none" stroke-linecap="round" stroke-linejoin="round"/><path d="M 1145.5 416.0 v 10 M 1151.5 416.0 v 10" stroke="#1f5c38" stroke-width="3.4" fill="none" stroke-linecap="round" stroke-linejoin="round"/><text x="1199.5" y="428.0" font-family="system-ui,'Segoe UI','Helvetica Neue',Arial,sans-serif" font-size="26" font-weight="700" fill="#1e2a3a">Delete</text><path d="M 706.5 464 L 706.5 502 L 748.5 502 L 748.5 528" stroke="#232c3d" stroke-width="4" fill="none" stroke-linejoin="round" marker-end="url(#ah)"/><text x="706.5" y="560" font-family="system-ui,'Segoe UI','Helvetica Neue',Arial,sans-serif" font-size="27" fill="#1e2a3a" text-anchor="middle">Inside each sub-workflow</text><rect x="468.5" y="580" width="476" height="448" rx="18" fill="#f5f1fd" stroke="#cbbcf0" stroke-width="2.5"/><rect x="533.5" y="602" width="346" height="124" rx="16" fill="#e7def9" stroke="#b8a5ec" stroke-width="2.5"/><circle cx="589.5" cy="664.0" r="30" fill="#a98ff2" fill-opacity="0.55"/><rect x="578.5" y="650.0" width="22" height="28" rx="4" stroke="#3a2a66" stroke-width="3.4" fill="none" stroke-linecap="round" stroke-linejoin="round"/><path d="M 584.5 658.0 h 10 M 584.5 664.0 h 10 M 584.5 670.0 h 10" stroke="#3a2a66" stroke-width="3.4" fill="none" stroke-linecap="round" stroke-linejoin="round"/><text x="641.5" y="646.5" font-family="system-ui,'Segoe UI','Helvetica Neue',Arial,sans-serif" font-size="25" font-weight="700" fill="#1e2a3a">LLM extraction</text><text x="641.5" y="679.5" font-family="system-ui,'Segoe UI','Helvetica Neue',Arial,sans-serif" font-size="21" fill="#3d4a5c">(extracts value, date,</text><text x="641.5" y="706.5" font-family="system-ui,'Segoe UI','Helvetica Neue',Arial,sans-serif" font-size="21" fill="#3d4a5c">category, card)</text><path d="M 706.5 726 L 706.5 763" stroke="#232c3d" stroke-width="4" fill="none" marker-end="url(#ah)"/><rect x="533.5" y="770" width="346" height="118" rx="16" fill="#fde7cd" stroke="#f2b476" stroke-width="2.5"/><circle cx="589.5" cy="829.0" r="30" fill="#f2a45c" fill-opacity="0.55"/><path d="M 582.5 821.0 l -8 8 l 8 8 M 596.5 821.0 l 8 8 l -8 8" stroke="#7a4212" stroke-width="3.4" fill="none" stroke-linecap="round" stroke-linejoin="round"/><path d="M 592.0 818.0 l -5 22" stroke="#7a4212" stroke-width="3.4" fill="none" stroke-linecap="round" stroke-linejoin="round"/><text x="641.5" y="811.5" font-family="system-ui,'Segoe UI','Helvetica Neue',Arial,sans-serif" font-size="25" font-weight="700" fill="#1e2a3a">Code</text><text x="641.5" y="844.5" font-family="system-ui,'Segoe UI','Helvetica Neue',Arial,sans-serif" font-size="21" fill="#3d4a5c">(fixed sequence</text><text x="641.5" y="871.5" font-family="system-ui,'Segoe UI','Helvetica Neue',Arial,sans-serif" font-size="21" fill="#3d4a5c">of operations)</text><path d="M 706.5 888 L 706.5 925" stroke="#232c3d" stroke-width="4" fill="none" marker-end="url(#ah)"/><rect x="533.5" y="932" width="346" height="76" rx="16" fill="#fbdad6" stroke="#f2948c" stroke-width="2.5"/><circle cx="585.5" cy="970.0" r="26" fill="#f28a80" fill-opacity="0.55"/><ellipse cx="585.5" cy="960.0" rx="13" ry="5.5" stroke="#7a2620" stroke-width="3.4" fill="none" stroke-linecap="round" stroke-linejoin="round"/><path d="M 572.5 960.0 v 20 a 13 5.5 0 0 0 26 0 v -20" stroke="#7a2620" stroke-width="3.4" fill="none" stroke-linecap="round" stroke-linejoin="round"/><path d="M 572.5 970.0 a 13 5.5 0 0 0 26 0" stroke="#7a2620" stroke-width="3.4" fill="none" stroke-linecap="round" stroke-linejoin="round"/><text x="633.5" y="979.5" font-family="system-ui,'Segoe UI','Helvetica Neue',Arial,sans-serif" font-size="25" font-weight="700" fill="#1e2a3a">Database</text><text x="706.5" y="1078" font-family="system-ui,'Segoe UI','Helvetica Neue',Arial,sans-serif" font-size="26" fill="#2a3345" text-anchor="middle">similar logic is reimplemented in every sub-workflow</text></svg>