<svg xmlns="http://www.w3.org/2000/svg" viewBox="0 0 1464 1050" font-family="system-ui,'Segoe UI','Helvetica Neue',Arial,sans-serif"><defs><marker id="ah" viewBox="0 0 10 10" refX="8" refY="5" markerWidth="5.5" markerHeight="5.5" orient="auto-start-reverse"><path d="M 0 0 L 10 5 L 0 10 z" fill="#232c3d"/></marker></defs><rect width="1464" height="1050" fill="#fdfdfc"/><rect x="88" y="100" width="440" height="165" rx="16" fill="#fdefc3" stroke="#ecc94b" stroke-width="2.5"/><circle cx="154" cy="182.5" r="40" fill="#f6cf4a" fill-opacity="0.55"/><circle cx="154" cy="174.5" r="9" stroke="#2a3345" stroke-width="3.4" fill="none" stroke-linecap="round" stroke-linejoin="round"/><path d="M 139 199.5 a 15 12 0 0 1 30 0" stroke="#2a3345" stroke-width="3.4" fill="none" stroke-linecap="round" stroke-linejoin="round"/><text x="216" y="179.0" font-family="system-ui,'Segoe UI','Helvetica Neue',Arial,sans-serif" font-size="30" font-weight="700" fill="#1e2a3a">Test case</text><text x="216" y="217.0" font-family="system-ui,'Segoe UI','Helvetica Neue',Arial,sans-serif" font-size="25" fill="#3d4a5c">(user input)</text><rect x="790" y="100" width="500" height="165" rx="16" fill="#e7def9" stroke="#b8a5ec" stroke-width="2.5"/><circle cx="856" cy="182.5" r="40" fill="#a98ff2" fill-opacity="0.55"/><rect x="841" y="174.5" width="30" height="21" rx="6" stroke="#3a2a66" stroke-width="3.4" fill="none" stroke-linecap="round" stroke-linejoin="round"/><line x1="856" y1="168.5" x2="856" y2="174.5" stroke="#3a2a66" stroke-width="3.4" fill="none" stroke-linecap="round" stroke-linejoin="round"/><circle cx="856" cy="165.5" r="2.6" fill="#3a2a66" stroke="none"/><circle cx="849.5" cy="183.5" r="2.4" fill="#3a2a66" stroke="none"/><circle cx="862.5" cy="183.5" r="2.4" fill="#3a2a66" stroke="none"/><path d="M 851 190.5 h 10" stroke="#3a2a66" stroke-width="3.4" fill="none" stroke-linecap="round" stroke-linejoin="round"/><text x="918" y="179.0" font-family="system-ui,'Segoe UI','Helvetica Neue',Arial,sans-serif" font-size="30" font-weight="700" fill="#1e2a3a">Agent (LLM)</text><text x="918" y="217.0" font-family="system-ui,'Segoe UI','Helvetica Neue',Arial,sans-serif" font-size="25" fill="#3d4a5c">(generates a response)</text><path d="M 528 182 L 786 182" stroke="#232c3d" stroke-width="4" fill="none" stroke-linejoin="round" marker-end="url(#ah)"/><path d="M 308 265 L 308 356" stroke="#232c3d" stroke-width="4" fill="none" stroke-linejoin="round" marker-end="url(#ah)"/><rect x="75" y="360" width="465" height="140" rx="16" fill="#fbd7ea" stroke="#f090c4" stroke-width="2.5"/><circle cx="139" cy="430.0" r="38" fill="#f27eb8" fill-opacity="0.55"/><circle cx="139" cy="430.0" r="13" stroke="#7a2050" stroke-width="3.4" fill="none" stroke-linecap="round" stroke-linejoin="round"/><path d="M 139 423.0 v 7 l 5.5 3.5" stroke="#7a2050" stroke-width="3.4" fill="none" stroke-linecap="round" stroke-linejoin="round"/><text x="199" y="442.0" font-family="system-ui,'Segoe UI','Helvetica Neue',Arial,sans-serif" font-size="30" font-weight="700" fill="#1e2a3a">Expected response</text><path d="M 1040 265 L 1040 356" stroke="#232c3d" stroke-width="4" fill="none" stroke-linejoin="round" marker-end="url(#ah)"/><rect x="790" y="360" width="500" height="140" rx="16" fill="#daf2e0" stroke="#66c88b" stroke-width="2.5"/><circle cx="854" cy="430.0" r="38" fill="#6fd096" fill-opacity="0.55"/><path d="M 841 419.0 h 26 a 4 4 0 0 1 4 4 v 12 a 4 4 0 0 1 -4 4 h -14 l -8 7 v -7 h -4 a 4 4 0 0 1 -4 -4 v -12 a 4 4 0 0 1 4 -4 z" stroke="#1f5c38" stroke-width="3.4" fill="none" stroke-linecap="round" stroke-linejoin="round"/><circle cx="848" cy="429.0" r="1.8" fill="#1f5c38" stroke="none"/><circle cx="854" cy="429.0" r="1.8" fill="#1f5c38" stroke="none"/><circle cx="860" cy="429.0" r="1.8" fill="#1f5c38" stroke="none"/><text x="914" y="442.0" font-family="system-ui,'Segoe UI','Helvetica Neue',Arial,sans-serif" font-size="30" font-weight="700" fill="#1e2a3a">Generated response</text><path d="M 1040 500 L 1040 591" stroke="#232c3d" stroke-width="4" fill="none" stroke-linejoin="round" marker-end="url(#ah)"/><rect x="790" y="595" width="500" height="172" rx="16" fill="#fcdcd2" stroke="#f29b82" stroke-width="2.5"/><circle cx="856" cy="681.0" r="40" fill="#f28c6e" fill-opacity="0.55"/><path d="M 856 667.0 v 24 M 843 672.0 h 26 M 850 694.0 h 12" stroke="#7a3018" stroke-width="3.4" fill="none" stroke-linecap="round" stroke-linejoin="round"/><path d="M 843 672.0 l -5 10 a 6.5 5 0 0 0 13 0 z" stroke="#7a3018" stroke-width="3.4" fill="none" stroke-linecap="round" stroke-linejoin="round"/><path d="M 869 672.0 l -5 10 a 6.5 5 0 0 0 13 0 z" stroke="#7a3018" stroke-width="3.4" fill="none" stroke-linecap="round" stroke-linejoin="round"/><text x="918" y="662.0" font-family="system-ui,'Segoe UI','Helvetica Neue',Arial,sans-serif" font-size="30" font-weight="700" fill="#1e2a3a">LLM Judge</text><text x="918" y="700.0" font-family="system-ui,'Segoe UI','Helvetica Neue',Arial,sans-serif" font-size="25" fill="#3d4a5c">(correctness, relevance,</text><text x="918" y="731.0" font-family="system-ui,'Segoe UI','Helvetica Neue',Arial,sans-serif" font-size="25" fill="#3d4a5c">format)</text><path d="M 308 500 L 308 681 L 786 681" stroke="#232c3d" stroke-width="4" fill="none" stroke-linejoin="round" marker-end="url(#ah)"/><path d="M 1040 767 L 1040 856" stroke="#232c3d" stroke-width="4" fill="none" stroke-linejoin="round" marker-end="url(#ah)"/><rect x="790" y="860" width="500" height="130" rx="16" fill="#cfe0fb" stroke="#86aef2" stroke-width="2.5"/><circle cx="854" cy="925.0" r="38" fill="#6b9bf2" fill-opacity="0.55"/><path d="M 854 911.0 l 4.1 8.6 9.4 1.2 -6.9 6.6 1.8 9.3 -8.4 -4.6 -8.4 4.6 1.8 -9.3 -6.9 -6.6 9.4 -1.2 z" stroke="#1d3461" stroke-width="3.4" fill="none" stroke-linecap="round" stroke-linejoin="round"/><text x="914" y="937.0" font-family="system-ui,'Segoe UI','Helvetica Neue',Arial,sans-serif" font-size="30" font-weight="700" fill="#1e2a3a">Score</text></svg>