<svg xmlns="http://www.w3.org/2000/svg" viewBox="0 0 1409 1117" font-family="system-ui,'Segoe UI','Helvetica Neue',Arial,sans-serif"><defs><marker id="ah" viewBox="0 0 10 10" refX="8" refY="5" markerWidth="5.5" markerHeight="5.5" orient="auto-start-reverse"><path d="M 0 0 L 10 5 L 0 10 z" fill="#232c3d"/></marker></defs><rect width="1409" height="1117" fill="#fdfdfc"/><rect x="504.5" y="22" width="400" height="100" rx="16" fill="#fdefc3" stroke="#ecc94b" stroke-width="2.5"/><circle cx="564.5" cy="72.0" r="34" fill="#f6cf4a" fill-opacity="0.55"/><circle cx="564.5" cy="64.0" r="9" stroke="#2a3345" stroke-width="3.4" fill="none" stroke-linecap="round" stroke-linejoin="round"/><path d="M 549.5 89.0 a 15 12 0 0 1 30 0" stroke="#2a3345" stroke-width="3.4" fill="none" stroke-linecap="round" stroke-linejoin="round"/><text x="620.5" y="68.0" font-family="system-ui,'Segoe UI','Helvetica Neue',Arial,sans-serif" font-size="27" font-weight="700" fill="#1e2a3a">User</text><text x="620.5" y="103.0" font-family="system-ui,'Segoe UI','Helvetica Neue',Arial,sans-serif" font-size="23" fill="#3d4a5c">(Telegram)</text><path d="M 704.5 122 L 704.5 162" stroke="#232c3d" stroke-width="4" fill="none" marker-end="url(#ah)"/><rect x="504.5" y="169" width="400" height="116" rx="16" fill="#dbe7fc" stroke="#82aaf2" stroke-width="2.5"/><circle cx="564.5" cy="227.0" r="34" fill="#79a2f2" fill-opacity="0.55"/><rect x="549.5" y="219.0" width="30" height="21" rx="6" stroke="#1d3461" stroke-width="3.4" fill="none" stroke-linecap="round" stroke-linejoin="round"/><line x1="564.5" y1="213.0" x2="564.5" y2="219.0" stroke="#1d3461" stroke-width="3.4" fill="none" stroke-linecap="round" stroke-linejoin="round"/><circle cx="564.5" cy="210.0" r="2.6" fill="#1d3461" stroke="none"/><circle cx="558.0" cy="228.0" r="2.4" fill="#1d3461" stroke="none"/><circle cx="571.0" cy="228.0" r="2.4" fill="#1d3461" stroke="none"/><path d="M 559.5 235.0 h 10" stroke="#1d3461" stroke-width="3.4" fill="none" stroke-linecap="round" stroke-linejoin="round"/><text x="620.5" y="223.0" font-family="system-ui,'Segoe UI','Helvetica Neue',Arial,sans-serif" font-size="27" font-weight="700" fill="#1e2a3a">Orchestrator</text><text x="620.5" y="258.0" font-family="system-ui,'Segoe UI','Helvetica Neue',Arial,sans-serif" font-size="23" fill="#3d4a5c">(intent-routing agent)</text><path d="M 704.5 285 L 704.5 330 L 204.5 330 L 204.5 368" stroke="#232c3d" stroke-width="4" fill="none" stroke-linejoin="round" marker-end="url(#ah)"/><path d="M 704.5 285 L 704.5 330 L 454.5 330 L 454.5 368" stroke="#232c3d" stroke-width="4" fill="none" stroke-linejoin="round" marker-end="url(#ah)"/><path d="M 704.5 285 L 704.5 368" stroke="#232c3d" stroke-width="4" fill="none" stroke-linejoin="round" marker-end="url(#ah)"/><path d="M 704.5 285 L 704.5 330 L 954.5 330 L 954.5 368" stroke="#232c3d" stroke-width="4" fill="none" stroke-linejoin="round" marker-end="url(#ah)"/><path d="M 704.5 285 L 704.5 330 L 1204.5 330 L 1204.5 368" stroke="#232c3d" stroke-width="4" fill="none" stroke-linejoin="round" marker-end="url(#ah)"/><rect x="91.5" y="372" width="226" height="92" rx="16" fill="#daf2e0" stroke="#66c88b" stroke-width="2.5"/><circle cx="146.5" cy="418.0" r="29" fill="#6fd096" fill-opacity="0.55"/><path d="M 135.5 403.0 h 22 v 27 l -5 -4 l -6 4 l -6 -4 l -5 4 z" stroke="#1f5c38" stroke-width="3.4" fill="none" stroke-linecap="round" stroke-linejoin="round"/><text x="146.5" y="420.0" font-family="system-ui,'Segoe UI','Helvetica Neue',Arial,sans-serif" font-size="15" font-weight="700" fill="#1f5c38" text-anchor="middle">$</text><text x="197.5" y="428.0" font-family="system-ui,'Segoe UI','Helvetica Neue',Arial,sans-serif" font-size="26" font-weight="700" fill="#1e2a3a">Expense</text><rect x="341.5" y="372" width="226" height="92" rx="16" fill="#daf2e0" stroke="#66c88b" stroke-width="2.5"/><circle cx="396.5" cy="418.0" r="29" fill="#6fd096" fill-opacity="0.55"/><rect x="380.5" y="407.0" width="32" height="23" rx="4" stroke="#1f5c38" stroke-width="3.4" fill="none" stroke-linecap="round" stroke-linejoin="round"/><line x1="380.5" y1="415.0" x2="412.5" y2="415.0" stroke="#1f5c38" stroke-width="3.4" fill="none" stroke-linecap="round" stroke-linejoin="round"/><text x="447.5" y="428.0" font-family="system-ui,'Segoe UI','Helvetica Neue',Arial,sans-serif" font-size="26" font-weight="700" fill="#1e2a3a">Card</text><rect x="591.5" y="372" width="226" height="92" rx="16" fill="#daf2e0" stroke="#66c88b" stroke-width="2.5"/><circle cx="646.5" cy="418.0" r="29" fill="#6fd096" fill-opacity="0.55"/><path d="M 633.5 431.0 h 26" stroke="#1f5c38" stroke-width="3.4" fill="none" stroke-linecap="round" stroke-linejoin="round"/><path d="M 638.5 431.0 v -8 M 646.5 431.0 v -14 M 654.5 431.0 v -20" stroke="#1f5c38" stroke-width="5" stroke-linecap="round" fill="none"/><text x="697.5" y="428.0" font-family="system-ui,'Segoe UI','Helvetica Neue',Arial,sans-serif" font-size="26" font-weight="700" fill="#1e2a3a">Report</text><rect x="841.5" y="372" width="226" height="92" rx="16" fill="#daf2e0" stroke="#66c88b" stroke-width="2.5"/><circle cx="896.5" cy="418.0" r="29" fill="#6fd096" fill-opacity="0.55"/><path d="M 884.5 432.0 l 2.5-9 L 903.5 406.5 l 6.5 6.5 L 893.5 429.5 z" stroke="#1f5c38" stroke-width="3.4" fill="none" stroke-linecap="round" stroke-linejoin="round"/><path d="M 900.0 410.0 l 6.5 6.5" stroke="#1f5c38" stroke-width="3.4" fill="none" stroke-linecap="round" stroke-linejoin="round"/><text x="947.5" y="428.0" font-family="system-ui,'Segoe UI','Helvetica Neue',Arial,sans-serif" font-size="26" font-weight="700" fill="#1e2a3a">Edit</text><rect x="1091.5" y="372" width="226" height="92" rx="16" fill="#daf2e0" stroke="#66c88b" stroke-width="2.5"/><circle cx="1146.5" cy="418.0" r="29" fill="#6fd096" fill-opacity="0.55"/><path d="M 1133.5 409.0 h 26" stroke="#1f5c38" stroke-width="3.4" fill="none" stroke-linecap="round" stroke-linejoin="round"/><path d="M 1141.5 409.0 v -4 h 10 v 4" stroke="#1f5c38" stroke-width="3.4" fill="none" stroke-linecap="round" stroke-linejoin="round"/><path d="M 1136.5 409.0 l 2 24 h 16 l 2 -24" stroke="#1f5c38" stroke-width="3.4" fill="none" stroke-linecap="round" stroke-linejoin="round"/><path d="M 1143.5 416.0 v 10 M 1149.5 416.0 v 10" stroke="#1f5c38" stroke-width="3.4" fill="none" stroke-linecap="round" stroke-linejoin="round"/><text x="1197.5" y="428.0" font-family="system-ui,'Segoe UI','Helvetica Neue',Arial,sans-serif" font-size="26" font-weight="700" fill="#1e2a3a">Delete</text><path d="M 704.5 464 L 704.5 517" stroke="#232c3d" stroke-width="4" fill="none" marker-end="url(#ah)"/><text x="704.5" y="552" font-family="system-ui,'Segoe UI','Helvetica Neue',Arial,sans-serif" font-size="26" fill="#1e2a3a" text-anchor="middle">each agent invokes the tools of its own domain</text><rect x="284.5" y="580" width="840" height="490" rx="18" fill="#fdf3e3" stroke="#cd8a4d" stroke-width="2.5"/><circle cx="348.5" cy="638" r="30" fill="#c9803f" fill-opacity="0.75"/><path d="M 360.5 626 a 8.5 8.5 0 0 1 -11 11 L 340.5 650 a 4.6 4.6 0 0 1 -6.5 -6.5 l 13 -9 a 8.5 8.5 0 0 1 11 -11 l -5 5 l 1.5 5 l 5 1.5 z" stroke="#5c3410" stroke-width="3.4" fill="none" stroke-linecap="round" stroke-linejoin="round"/><text x="396.5" y="648" font-family="system-ui,'Segoe UI','Helvetica Neue',Arial,sans-serif" font-size="27" font-weight="700" fill="#1e2a3a">Atomic Tools (shared)</text><rect x="326.5" y="696" width="163.0" height="58" rx="9" fill="#ccdcf8" stroke="#7ea6e8" stroke-width="2"/><text x="408.0" y="733" font-family="system-ui,'Segoe UI','Helvetica Neue',Arial,sans-serif" font-size="23" fill="#1e2a3a" text-anchor="middle">list_cards</text><rect x="554.5" y="696" width="209.0" height="58" rx="9" fill="#ccdcf8" stroke="#7ea6e8" stroke-width="2"/><text x="659.0" y="733" font-family="system-ui,'Segoe UI','Helvetica Neue',Arial,sans-serif" font-size="23" fill="#1e2a3a" text-anchor="middle">insert_expense</text><rect x="774.5" y="696" width="266.5" height="58" rx="9" fill="#ccdcf8" stroke="#7ea6e8" stroke-width="2"/><text x="907.8" y="733" font-family="system-ui,'Segoe UI','Helvetica Neue',Arial,sans-serif" font-size="23" fill="#1e2a3a" text-anchor="middle">insert_installments</text><rect x="326.5" y="784" width="174.5" height="58" rx="9" fill="#ccdcf8" stroke="#7ea6e8" stroke-width="2"/><text x="413.8" y="821" font-family="system-ui,'Segoe UI','Helvetica Neue',Arial,sans-serif" font-size="23" fill="#1e2a3a" text-anchor="middle">insert_card</text><rect x="554.5" y="784" width="220.5" height="58" rx="9" fill="#ccdcf8" stroke="#7ea6e8" stroke-width="2"/><text x="664.8" y="821" font-family="system-ui,'Segoe UI','Helvetica Neue',Arial,sans-serif" font-size="23" fill="#1e2a3a" text-anchor="middle">insert_expenses</text><rect x="774.5" y="784" width="301.0" height="58" rx="9" fill="#ccdcf8" stroke="#7ea6e8" stroke-width="2"/><text x="925.0" y="821" font-family="system-ui,'Segoe UI','Helvetica Neue',Arial,sans-serif" font-size="23" fill="#1e2a3a" text-anchor="middle">list_expenses_by_range</text><rect x="326.5" y="872" width="209.0" height="58" rx="9" fill="#ccdcf8" stroke="#7ea6e8" stroke-width="2"/><text x="431.0" y="909" font-family="system-ui,'Segoe UI','Helvetica Neue',Arial,sans-serif" font-size="23" fill="#1e2a3a" text-anchor="middle">delete_expense</text><rect x="554.5" y="872" width="220.5" height="58" rx="9" fill="#ccdcf8" stroke="#7ea6e8" stroke-width="2"/><text x="664.8" y="909" font-family="system-ui,'Segoe UI','Helvetica Neue',Arial,sans-serif" font-size="23" fill="#1e2a3a" text-anchor="middle">get_report_data</text><rect x="774.5" y="872" width="186.0" height="58" rx="9" fill="#ccdcf8" stroke="#7ea6e8" stroke-width="2"/><text x="867.5" y="909" font-family="system-ui,'Segoe UI','Helvetica Neue',Arial,sans-serif" font-size="23" fill="#1e2a3a" text-anchor="middle">build_report</text><rect x="535.0" y="960" width="151.5" height="58" rx="9" fill="#ccdcf8" stroke="#7ea6e8" stroke-width="2"/><text x="610.8" y="997" font-family="system-ui,'Segoe UI','Helvetica Neue',Arial,sans-serif" font-size="23" fill="#1e2a3a" text-anchor="middle">redis_set</text><rect x="722.5" y="960" width="151.5" height="58" rx="9" fill="#ccdcf8" stroke="#7ea6e8" stroke-width="2"/><text x="798.2" y="997" font-family="system-ui,'Segoe UI','Helvetica Neue',Arial,sans-serif" font-size="23" fill="#1e2a3a" text-anchor="middle">redis_get</text></svg>