<svg xmlns="http://www.w3.org/2000/svg" viewBox="0 0 640 400" font-family="system-ui,'Segoe UI','Helvetica Neue',Arial,sans-serif"><rect width="640" height="400" fill="#ffffff"/><text x="24" y="32" font-size="18" fill="#757575">Accuracy (%) per version</text><line x1="75" y1="330.0" x2="615" y2="330.0" stroke="#bdbdbd" stroke-width="1"/><text x="65" y="335.0" font-size="14" fill="#666" text-anchor="end">0</text><line x1="75" y1="262.5" x2="615" y2="262.5" stroke="#e6e6e6" stroke-width="1"/><text x="65" y="267.5" font-size="14" fill="#666" text-anchor="end">20</text><line x1="75" y1="195.0" x2="615" y2="195.0" stroke="#e6e6e6" stroke-width="1"/><text x="65" y="200.0" font-size="14" fill="#666" text-anchor="end">40</text><line x1="75" y1="127.5" x2="615" y2="127.5" stroke="#e6e6e6" stroke-width="1"/><text x="65" y="132.5" font-size="14" fill="#666" text-anchor="end">60</text><line x1="75" y1="60.0" x2="615" y2="60.0" stroke="#e6e6e6" stroke-width="1"/><text x="65" y="65.0" font-size="14" fill="#666" text-anchor="end">80</text><path d="M 110.0 330 v -27.1 a 5 5 0 0 1 5 -5 h 100 a 5 5 0 0 1 5 5 v 27.1 z" fill="#9e9e9e"/><text x="165" y="287.87" font-size="16" font-weight="700" fill="#3a3a3a" text-anchor="middle">9.52%</text><text x="165" y="354" font-size="15" fill="#555" text-anchor="middle">V1</text><path d="M 290.0 330 v -139.6 a 5 5 0 0 1 5 -5 h 100 a 5 5 0 0 1 5 5 v 139.6 z" fill="#4285f4"/><text x="345" y="175.38125" font-size="16" font-weight="700" fill="#3a3a3a" text-anchor="middle">42.85%</text><text x="345" y="354" font-size="15" fill="#555" text-anchor="middle">V2</text><path d="M 470.0 330 v -249.8 a 5 5 0 0 1 5 -5 h 100 a 5 5 0 0 1 5 5 v 249.8 z" fill="#6aa84f"/><text x="525" y="65.15375" font-size="16" font-weight="700" fill="#3a3a3a" text-anchor="middle">75.51%</text><text x="525" y="354" font-size="15" fill="#555" text-anchor="middle">V3</text><text x="345.0" y="382" font-size="15" fill="#757575" text-anchor="middle">Version</text><text x="22" y="195.0" font-size="15" fill="#757575" text-anchor="middle" transform="rotate(-90 22 195.0)">Accuracy (%)</text></svg>