<svg xmlns="http://www.w3.org/2000/svg" viewBox="0 0 1512 1030" font-family="system-ui,'Segoe UI','Helvetica Neue',Arial,sans-serif"><defs><marker id="ah" viewBox="0 0 10 10" refX="8" refY="5" markerWidth="5.5" markerHeight="5.5" orient="auto-start-reverse"><path d="M 0 0 L 10 5 L 0 10 z" fill="#232c3d"/></marker></defs><rect width="1512" height="1030" fill="#fdfdfc"/><rect x="556.0" y="30" width="400" height="112" rx="16" fill="#fdefc3" stroke="#ecc94b" stroke-width="2.5"/><circle cx="616.0" cy="86.0" r="34" fill="#f6cf4a" fill-opacity="0.55"/><circle cx="616.0" cy="78.0" r="9" stroke="#2a3345" stroke-width="3.4" fill="none" stroke-linecap="round" stroke-linejoin="round"/><path d="M 601.0 103.0 a 15 12 0 0 1 30 0" stroke="#2a3345" stroke-width="3.4" fill="none" stroke-linecap="round" stroke-linejoin="round"/><text x="672.0" y="82.0" font-family="system-ui,'Segoe UI','Helvetica Neue',Arial,sans-serif" font-size="27" font-weight="700" fill="#1e2a3a">User</text><text x="672.0" y="117.0" font-family="system-ui,'Segoe UI','Helvetica Neue',Arial,sans-serif" font-size="23" fill="#3d4a5c">(Telegram)</text><path d="M 756.0 142 L 756.0 189" stroke="#232c3d" stroke-width="4" fill="none" marker-end="url(#ah)"/><rect x="556.0" y="196" width="400" height="110" rx="16" fill="#dbe7fc" stroke="#82aaf2" stroke-width="2.5"/><circle cx="616.0" cy="251.0" r="34" fill="#79a2f2" fill-opacity="0.55"/><rect x="601.0" y="243.0" width="30" height="21" rx="6" stroke="#1d3461" stroke-width="3.4" fill="none" stroke-linecap="round" stroke-linejoin="round"/><line x1="616.0" y1="237.0" x2="616.0" y2="243.0" stroke="#1d3461" stroke-width="3.4" fill="none" stroke-linecap="round" stroke-linejoin="round"/><circle cx="616.0" cy="234.0" r="2.6" fill="#1d3461" stroke="none"/><circle cx="609.5" cy="252.0" r="2.4" fill="#1d3461" stroke="none"/><circle cx="622.5" cy="252.0" r="2.4" fill="#1d3461" stroke="none"/><path d="M 611.0 259.0 h 10" stroke="#1d3461" stroke-width="3.4" fill="none" stroke-linecap="round" stroke-linejoin="round"/><text x="672.0" y="247.0" font-family="system-ui,'Segoe UI','Helvetica Neue',Arial,sans-serif" font-size="27" font-weight="700" fill="#1e2a3a">LLM Classifier</text><text x="672.0" y="282.0" font-family="system-ui,'Segoe UI','Helvetica Neue',Arial,sans-serif" font-size="23" fill="#3d4a5c">(produces an action label)</text><path d="M 756.0 306 L 756.0 353" stroke="#232c3d" stroke-width="4" fill="none" marker-end="url(#ah)"/><rect x="556.0" y="360" width="400" height="100" rx="16" fill="#e7def9" stroke="#b8a5ec" stroke-width="2.5"/><circle cx="616.0" cy="410.0" r="34" fill="#a98ff2" fill-opacity="0.55"/><circle cx="616.0" cy="400.0" r="5" stroke="#3a2a66" stroke-width="3.4" fill="none" stroke-linecap="round" stroke-linejoin="round"/><circle cx="605.0" cy="420.0" r="5" stroke="#3a2a66" stroke-width="3.4" fill="none" stroke-linecap="round" stroke-linejoin="round"/><circle cx="627.0" cy="420.0" r="5" stroke="#3a2a66" stroke-width="3.4" fill="none" stroke-linecap="round" stroke-linejoin="round"/><path d="M 613.5 404.0 L 607.5 416.0" stroke="#3a2a66" stroke-width="3.4" fill="none" stroke-linecap="round" stroke-linejoin="round"/><path d="M 618.5 404.0 L 624.5 416.0" stroke="#3a2a66" stroke-width="3.4" fill="none" stroke-linecap="round" stroke-linejoin="round"/><text x="672.0" y="420.5" font-family="system-ui,'Segoe UI','Helvetica Neue',Arial,sans-serif" font-size="27" font-weight="700" fill="#1e2a3a">Action switch</text><path d="M 756.0 460 L 756.0 495 L 172.0 495 L 172.0 541" stroke="#232c3d" stroke-width="4" fill="none" stroke-linejoin="round" marker-end="url(#ah)"/><path d="M 756.0 460 L 756.0 495 L 464.0 495 L 464.0 541" stroke="#232c3d" stroke-width="4" fill="none" stroke-linejoin="round" marker-end="url(#ah)"/><path d="M 756.0 460 L 756.0 541" stroke="#232c3d" stroke-width="4" fill="none" stroke-linejoin="round" marker-end="url(#ah)"/><path d="M 756.0 460 L 756.0 495 L 1048.0 495 L 1048.0 541" stroke="#232c3d" stroke-width="4" fill="none" stroke-linejoin="round" marker-end="url(#ah)"/><path d="M 756.0 460 L 756.0 495 L 1340.0 495 L 1340.0 541" stroke="#232c3d" stroke-width="4" fill="none" stroke-linejoin="round" marker-end="url(#ah)"/><rect x="39.0" y="545" width="266" height="108" rx="16" fill="#daf2e0" stroke="#66c88b" stroke-width="2.5"/><circle cx="96.0" cy="599.0" r="31" fill="#6fd096" fill-opacity="0.55"/><rect x="80.0" y="588.0" width="32" height="23" rx="4" stroke="#1f5c38" stroke-width="3.4" fill="none" stroke-linecap="round" stroke-linejoin="round"/><line x1="80.0" y1="596.0" x2="112.0" y2="596.0" stroke="#1f5c38" stroke-width="3.4" fill="none" stroke-linecap="round" stroke-linejoin="round"/><text x="149.0" y="593.0" font-family="system-ui,'Segoe UI','Helvetica Neue',Arial,sans-serif" font-size="26" font-weight="700" fill="#1e2a3a">Register</text><text x="149.0" y="625.0" font-family="system-ui,'Segoe UI','Helvetica Neue',Arial,sans-serif" font-size="26" font-weight="700" fill="#1e2a3a">card</text><rect x="331.0" y="545" width="266" height="108" rx="16" fill="#daf2e0" stroke="#66c88b" stroke-width="2.5"/><circle cx="388.0" cy="599.0" r="31" fill="#6fd096" fill-opacity="0.55"/><path d="M 377.0 584.0 h 22 v 27 l -5 -4 l -6 4 l -6 -4 l -5 4 z" stroke="#1f5c38" stroke-width="3.4" fill="none" stroke-linecap="round" stroke-linejoin="round"/><text x="388.0" y="601.0" font-family="system-ui,'Segoe UI','Helvetica Neue',Arial,sans-serif" font-size="15" font-weight="700" fill="#1f5c38" text-anchor="middle">$</text><text x="441.0" y="593.0" font-family="system-ui,'Segoe UI','Helvetica Neue',Arial,sans-serif" font-size="26" font-weight="700" fill="#1e2a3a">Register</text><text x="441.0" y="625.0" font-family="system-ui,'Segoe UI','Helvetica Neue',Arial,sans-serif" font-size="26" font-weight="700" fill="#1e2a3a">expense</text><rect x="623.0" y="545" width="266" height="108" rx="16" fill="#daf2e0" stroke="#66c88b" stroke-width="2.5"/><circle cx="680.0" cy="599.0" r="31" fill="#6fd096" fill-opacity="0.55"/><path d="M 667.0 590.0 h 26" stroke="#1f5c38" stroke-width="3.4" fill="none" stroke-linecap="round" stroke-linejoin="round"/><path d="M 675.0 590.0 v -4 h 10 v 4" stroke="#1f5c38" stroke-width="3.4" fill="none" stroke-linecap="round" stroke-linejoin="round"/><path d="M 670.0 590.0 l 2 24 h 16 l 2 -24" stroke="#1f5c38" stroke-width="3.4" fill="none" stroke-linecap="round" stroke-linejoin="round"/><path d="M 677.0 597.0 v 10 M 683.0 597.0 v 10" stroke="#1f5c38" stroke-width="3.4" fill="none" stroke-linecap="round" stroke-linejoin="round"/><text x="733.0" y="593.0" font-family="system-ui,'Segoe UI','Helvetica Neue',Arial,sans-serif" font-size="26" font-weight="700" fill="#1e2a3a">Delete</text><text x="733.0" y="625.0" font-family="system-ui,'Segoe UI','Helvetica Neue',Arial,sans-serif" font-size="26" font-weight="700" fill="#1e2a3a">expense</text><rect x="915.0" y="545" width="266" height="108" rx="16" fill="#daf2e0" stroke="#66c88b" stroke-width="2.5"/><circle cx="972.0" cy="599.0" r="31" fill="#6fd096" fill-opacity="0.55"/><path d="M 960.0 613.0 l 2.5-9 L 979.0 587.5 l 6.5 6.5 L 969.0 610.5 z" stroke="#1f5c38" stroke-width="3.4" fill="none" stroke-linecap="round" stroke-linejoin="round"/><path d="M 975.5 591.0 l 6.5 6.5" stroke="#1f5c38" stroke-width="3.4" fill="none" stroke-linecap="round" stroke-linejoin="round"/><text x="1025.0" y="593.0" font-family="system-ui,'Segoe UI','Helvetica Neue',Arial,sans-serif" font-size="26" font-weight="700" fill="#1e2a3a">Edit</text><text x="1025.0" y="625.0" font-family="system-ui,'Segoe UI','Helvetica Neue',Arial,sans-serif" font-size="26" font-weight="700" fill="#1e2a3a">expense</text><rect x="1207.0" y="545" width="266" height="108" rx="16" fill="#daf2e0" stroke="#66c88b" stroke-width="2.5"/><circle cx="1264.0" cy="599.0" r="31" fill="#6fd096" fill-opacity="0.55"/><path d="M 1251.0 612.0 h 26" stroke="#1f5c38" stroke-width="3.4" fill="none" stroke-linecap="round" stroke-linejoin="round"/><path d="M 1256.0 612.0 v -8 M 1264.0 612.0 v -14 M 1272.0 612.0 v -20" stroke="#1f5c38" stroke-width="5" stroke-linecap="round" fill="none"/><text x="1317.0" y="593.0" font-family="system-ui,'Segoe UI','Helvetica Neue',Arial,sans-serif" font-size="26" font-weight="700" fill="#1e2a3a">Generate</text><text x="1317.0" y="625.0" font-family="system-ui,'Segoe UI','Helvetica Neue',Arial,sans-serif" font-size="26" font-weight="700" fill="#1e2a3a">report</text><path d="M 172.0 653 L 172.0 710 L 626.0 710 L 626.0 771" stroke="#232c3d" stroke-width="4" fill="none" stroke-linejoin="round" marker-end="url(#ah)"/><path d="M 464.0 653 L 464.0 710 L 691.0 710 L 691.0 771" stroke="#232c3d" stroke-width="4" fill="none" stroke-linejoin="round" marker-end="url(#ah)"/><path d="M 756.0 653 L 756.0 771" stroke="#232c3d" stroke-width="4" fill="none" stroke-linejoin="round" marker-end="url(#ah)"/><path d="M 1048.0 653 L 1048.0 710 L 821.0 710 L 821.0 771" stroke="#232c3d" stroke-width="4" fill="none" stroke-linejoin="round" marker-end="url(#ah)"/><path d="M 1340.0 653 L 1340.0 710 L 886.0 710 L 886.0 771" stroke="#232c3d" stroke-width="4" fill="none" stroke-linejoin="round" marker-end="url(#ah)"/><rect x="561.0" y="775" width="390" height="152" rx="16" fill="#fbdad6" stroke="#f2948c" stroke-width="2.5"/><circle cx="621.0" cy="851.0" r="34" fill="#f28a80" fill-opacity="0.55"/><ellipse cx="621.0" cy="841.0" rx="13" ry="5.5" stroke="#7a2620" stroke-width="3.4" fill="none" stroke-linecap="round" stroke-linejoin="round"/><path d="M 608.0 841.0 v 20 a 13 5.5 0 0 0 26 0 v -20" stroke="#7a2620" stroke-width="3.4" fill="none" stroke-linecap="round" stroke-linejoin="round"/><path d="M 608.0 851.0 a 13 5.5 0 0 0 26 0" stroke="#7a2620" stroke-width="3.4" fill="none" stroke-linecap="round" stroke-linejoin="round"/><text x="677.0" y="832.5" font-family="system-ui,'Segoe UI','Helvetica Neue',Arial,sans-serif" font-size="27" font-weight="700" fill="#1e2a3a">Database / response</text><text x="677.0" y="867.5" font-family="system-ui,'Segoe UI','Helvetica Neue',Arial,sans-serif" font-size="23" fill="#3d4a5c">(queries and messages</text><text x="677.0" y="896.5" font-family="system-ui,'Segoe UI','Helvetica Neue',Arial,sans-serif" font-size="23" fill="#3d4a5c">assembled by hand)</text><text x="756.0" y="985" font-family="system-ui,'Segoe UI','Helvetica Neue',Arial,sans-serif" font-size="26" fill="#2a3345" text-anchor="middle">each branch: business logic in code + database access</text></svg>